<?xml version="1.0" encoding="utf-8"?>
<!-- Generator: Adobe Illustrator 26.1.0, SVG Export Plug-In . SVG Version: 6.00 Build 0)  -->
<svg version="1.1" id="Layer_1" xmlns="http://www.w3.org/2000/svg" xmlns:xlink="http://www.w3.org/1999/xlink" x="0px" y="0px"
	 viewBox="0 0 96.6 95.6" style="enable-background:new 0 0 96.6 95.6;" xml:space="preserve">
<style type="text/css">
	.st0{fill:#ADBCF7;}
	.st1{fill:#D7E8F7;}
	.st2{fill:#8E8E8E;}
</style>
<g id="a">
	<circle class="st0" cx="47.7" cy="47.6" r="46"/>
</g>
<g id="b">
	<circle class="st1" cx="47.7" cy="47.6" r="34.6"/>
	<path class="st2" d="M69.1,44.3c8.7-4.9,4.7-14.3,4.7-14.3c-7.7,1.1-9.6,6.9-10.1,9.2c-8.2-6.3-15.6-5.6-15.6-5.6
		s-7.5-0.7-15.7,5.6c-0.4-2.3-2.3-8.1-10.1-9.2c0,0-4,9.5,4.8,14.4c-2.5,2.9-4.9,6.6-7.1,11.2c0,0,12.4-11.1,21.5-9.6
		c2.4,0.3,4.4,3.8,0.4,14.2c0,0,3.5-0.9,6.2-0.9s6.2,0.9,6.2,0.9c-4-10.5-2-14,0.4-14.2c9.1-1.5,21.5,9.6,21.5,9.6
		C73.9,50.9,71.5,47.2,69.1,44.3L69.1,44.3z M24.5,33.6c5.5,1.9,5.7,5.9,5.5,7.6c-0.5,0.5-1,1-1.5,1.5
		C22.2,39.6,24.5,33.6,24.5,33.6z M71.6,33.6c0,0,2.2,6.1-4,9.1c-0.5-0.5-1-1-1.5-1.5C65.9,39.3,66.2,35.4,71.6,33.6z"/>
	<ellipse cx="48.1" cy="63.4" rx="8.2" ry="3.2"/>
	<path d="M57.9,50.2c-3.9,2,0.3,8.7,0.3,8.7S70.9,60,70.6,69.6c0,0,4.2-3.3,6-8.2C76.5,61.3,64.6,46.6,57.9,50.2z M61.9,57.8
		c-1.5,0-2.7-1.2-2.7-2.7s1.2-2.7,2.7-2.7s2.7,1.2,2.7,2.7S63.4,57.8,61.9,57.8z"/>
	<path d="M19.6,61.3c1.7,4.9,6,8.2,6,8.2C25.2,60,37.8,58.9,37.8,58.9s4.2-6.7,0.3-8.7C31.5,46.6,19.6,61.3,19.6,61.3z M31.5,55.1
		c0-1.5,1.2-2.7,2.7-2.7s2.7,1.2,2.7,2.7s-1.2,2.7-2.7,2.7S31.5,56.6,31.5,55.1z"/>
</g>
</svg>
