<?xml version="1.0" encoding="utf-8"?>
<!-- Generator: Adobe Illustrator 26.1.0, SVG Export Plug-In . SVG Version: 6.00 Build 0)  -->
<svg version="1.1" id="Layer_1" xmlns="http://www.w3.org/2000/svg" xmlns:xlink="http://www.w3.org/1999/xlink" x="0px" y="0px"
	 viewBox="0 0 90.6 88.6" style="enable-background:new 0 0 90.6 88.6;" xml:space="preserve">
<style type="text/css">
	.st0{fill:#F1D80C;}
	.st1{fill:#FFFFFF;}
	.st2{fill:#7A3F0C;}
	.st3{fill:#3D0927;}
</style>
<g id="a">
	<circle class="st0" cx="46.1" cy="44.8" r="39.4"/>
</g>
<g id="b">
	<polygon class="st0" points="76.3,77 70,76.4 68.8,82.5 62.8,80.7 60.3,86.4 54.9,83.4 51.3,88.5 46.6,84.3 42,88.6 38.2,83.5 
		32.9,86.7 30.3,81 24.3,83 23,76.9 16.7,77.7 16.7,71.4 10.4,70.8 11.7,64.7 5.7,62.8 8.2,57.1 2.7,54 6.4,48.9 1.7,44.8 6.3,40.5 
		2.5,35.5 7.9,32.3 5.3,26.6 11.2,24.6 9.9,18.5 16.1,17.8 16,11.6 22.2,12.1 23.5,6 29.4,7.9 31.9,2.1 37.4,5.2 41,0.1 45.7,4.2 
		50.3,0 54,5 59.4,1.8 62,7.5 67.9,5.5 69.3,11.6 75.5,10.9 75.6,17.2 81.8,17.7 80.6,23.9 86.6,25.7 84.1,31.5 89.5,34.5 
		85.9,39.6 90.6,43.8 86,48 89.7,53 84.3,56.2 87,61.9 81,63.9 82.4,70 76.2,70.7 	"/>
	<circle class="st1" cx="46.1" cy="44.8" r="34.6"/>
	<path class="st2" d="M67.5,41.5c8.7-4.9,4.7-14.3,4.7-14.3c-7.7,1.1-9.6,6.9-10.1,9.2c-8.2-6.3-15.6-5.6-15.6-5.6S39,30,30.8,36.4
		c-0.4-2.3-2.3-8.1-10.1-9.2c0,0-4,9.5,4.8,14.4c-2.5,2.9-4.9,6.6-7.1,11.2c0,0,12.4-11.1,21.5-9.6c2.4,0.3,4.4,3.8,0.4,14.2
		c0,0,3.5-0.9,6.2-0.9s6.2,0.9,6.2,0.9c-4-10.5-2-14,0.4-14.2c9.1-1.5,21.5,9.6,21.5,9.6C72.4,48.1,70,44.4,67.5,41.5L67.5,41.5z
		 M22.9,30.8c5.5,1.9,5.7,5.9,5.5,7.6c-0.5,0.5-1,1-1.5,1.5C20.7,36.8,22.9,30.8,22.9,30.8z M70,30.8c0,0,2.2,6.1-4,9.1
		c-0.5-0.5-1-1-1.5-1.5C64.3,36.5,64.6,32.6,70,30.8z"/>
	<ellipse cx="46.5" cy="60.6" rx="8.2" ry="3.2"/>
	<path class="st3" d="M56.4,47.4c-3.9,2,0.3,8.7,0.3,8.7S69.3,57.2,69,66.8c0,0,4.2-3.3,6-8.2C75,58.5,63,43.8,56.4,47.4z M60.3,55
		c-1.5,0-2.7-1.2-2.7-2.7s1.2-2.7,2.7-2.7s2.7,1.2,2.7,2.7S61.8,55,60.3,55z"/>
	<path class="st3" d="M18,58.5c1.7,4.9,6,8.2,6,8.2c-0.3-9.6,12.3-10.6,12.3-10.6s4.2-6.7,0.3-8.7C30,43.8,18,58.5,18,58.5z
		 M30,52.3c0-1.5,1.2-2.7,2.7-2.7c1.5,0,2.7,1.2,2.7,2.7S34.1,55,32.6,55C31.2,55,30,53.8,30,52.3z"/>
</g>
</svg>
